<?xml version="1.0" encoding="utf-8" ?>
<svg baseProfile="full" height="200mm" version="1.1" viewBox="0,0,200,200" width="200mm" xmlns="http://www.w3.org/2000/svg" xmlns:ev="http://www.w3.org/2001/xml-events" xmlns:xlink="http://www.w3.org/1999/xlink"><defs /><rect fill="#1a1a1a" height="200" width="200" x="0" y="0" /><text alignment-baseline="middle" fill="#e1ed5e" style="dominant-baseline: central; font-size:9.0px; font-family:Arial;" text-anchor="middle" x="100.0" y="100.0">2024</text><line stroke="#e1ed5e" stroke-width="0.3" x1="100.0" x2="100.0" y1="15.0" y2="10.0" /><path d="M 100.0 14.0 a86.0,86.0 0 0,1 42.35913384403234,11.155469271406648" fill="none" id="id85" stroke="none" /><text fill="#e1ed5e" style="font-size:6.75px; font-family:Arial;" text-anchor="middle"><textPath startOffset="22.145653131862478" xlink:href="#id85">January</textPath></text><path d="M 100.0 79.0 l 0.0 -53.33197436286716 a74.33197436286716,74.33197436286716 0 0,0 1.276007183231432,0.010952987012249438 l -0.9155142583825772 53.324115774049346" fill="#41ffcc" stroke="none" /><path d="M 107.40779381753099 80.34994680014964 l 2.678224078148708 -7.104307559451341 a28.592369202828124,28.592369202828124 0 0,0 0.457787981286509,0.1770822255675398 l -2.799784321928743 7.057285445745762" fill="#ff4a06" stroke="none" /><path d="M 109.71004243097381 81.37971332152246 l 3.766588210611218 -7.222929537118494 a29.146035713553815,29.146035713553815 0 0,0 0.4416473590255804,0.23515234279469532 l -3.890024385423358 7.157206726601226" fill="#ff5207" stroke="none" /><line stroke="#e1ed5e" stroke-width="0.3" x1="143.13028292997686" x2="145.6673583964461" y1="26.7553504044142" y2="22.446841604673864" /><path d="M 143.63769802327073 25.89364864446614 a86.0,86.0 0 0,1 29.32050498858742,28.57503671076993" fill="none" id="id86" stroke="none" /><text fill="#e1ed5e" style="font-size:6.75px; font-family:Arial;" text-anchor="middle"><textPath startOffset="20.669276256404974" xlink:href="#id86">February</textPath></text><path d="M 110.65571695917076 81.90426304109057 l 12.92210983312201 -21.9445675396872 a46.46654603677463,46.46654603677463 0 0,0 0.6838708236134768,0.41064478037516455 l -13.296913413292922 21.719508758776115" fill="#caff1d" stroke="none" /><path d="M 112.45986205192187 83.09580414077388 l 5.6220443847233 -7.627382952764408 a30.47546061001363,30.47546061001363 0 0,0 0.4184527608792907,0.3140147529224737 l -5.752150134513357 7.529749172577919" fill="#ff6509" stroke="none" /><path d="M 113.03279911837588 83.53348406188908 l 4.708598628589406 -5.949160549441263 a28.587055574343864,28.587055574343864 0 0,0 0.38218065858611544,0.307857685407644 l -4.81003005753078 5.867454570240211" fill="#ff4a06" stroke="none" /><path d="M 113.59037401385872 83.9905735841838 l 29.6888263956267 -34.973362842556135 a66.87551112812528,66.87551112812528 0 0,0 0.8688100827190366,0.7504574567506493 l -30.284815958108595 34.45856125334077" fill="#37ff79" stroke="none" /><path d="M 114.13192950727249 84.46653392183569 l 14.265449641752003 -15.680228095242164 a42.19841047343371,42.19841047343371 0 0,0 0.531640148054454,0.49207818411264964 l -14.532519561120422 15.43303216499714" fill="#feff18" stroke="none" /><path d="M 115.16444852881244 85.47280134310134 l 15.384130427875899 -14.737648946795852 a42.30421942951419,42.30421942951419 0 0,0 0.49786862096883794,0.5287192223646682 l -15.634854882580996 14.47138826448669" fill="#fdff18" stroke="none" /><path d="M 116.1254893667686 86.54754324733833 l 23.60104466663432 -19.688830861147203 a51.7353114517379,51.7353114517379 0 0,0 0.563060475713093,0.6868422280172495 l -23.93555196158604 19.28078635143146" fill="#8eff24" stroke="none" /><line stroke="#e1ed5e" stroke-width="0.3" x1="172.87174338648825" x2="177.1583165268699" y1="56.24261187166439" y2="53.66864786411523" /><path d="M 173.72905801456457 55.72781907015455 a86.0,86.0 0 0,1 12.242430191666344,42.057860355516425" fill="none" id="id87" stroke="none" /><text fill="#e1ed5e" style="font-size:6.75px; font-family:Arial;" text-anchor="middle"><textPath startOffset="22.145653131862474" xlink:href="#id87">March</textPath></text><path d="M 118.18653347947321 89.5 l 22.562462548228037 -13.02644382580031 a47.052887651600614,47.052887651600614 0 0,0 0.39785823458676056,0.7029773784750715 l -22.782754147836172 12.63720967722612" fill="#c3ff1e" stroke="none" /><path d="M 118.8641267826498 90.77261029715802 l 28.57937330373958 -13.979603613518549 a52.815246276362586,52.815246276362586 0 0,0 0.39138799126464485,0.8178503709250337 l -28.815140552964134 13.486940740528413" fill="#82ff25" stroke="none" /><path d="M 119.58574465831526 92.42381321644754 l 30.62683780077498 -11.847118800751039 a53.83835284471631,53.83835284471631 0 0,0 0.3260279293247352,0.8648278169819958 l -30.825696413914155 11.319622703574884" fill="#77ff27" stroke="none" /><path d="M 120.16314734710363 94.1308016681162 l 2.42712927547264 -0.7065019587290097 a23.527865015688985,23.527865015688985 0 0,0 0.10955191045236935,0.38876108228207557 l -2.4388996779995917 0.664732952543921" fill="#ff0000" stroke="none" /><path d="M 120.592083275326 95.88100663000786 l 30.458510655173477 -6.092555171376085 a52.06187534337838,52.06187534337838 0 0,0 0.16777238739193193,0.8778560246974101 l -30.558609334847567 5.56879658164536" fill="#8aff24" stroke="none" /><path d="M 120.77682067341334 96.94652285012252 l 52.87570905305782 -7.770908355756499 a74.4436864796693,74.4436864796693 0 0,0 0.17496210169601267,1.26593861059891 l -53.001315671309044 6.862081436957504" fill="#41ffcd" stroke="none" /><path d="M 120.9064616781168 98.02013634271609 l 19.379394579229 -1.8352488153335638 a40.46610059749085,40.46610059749085 0 0,0 0.0595552653817728,0.6921224585427553 l -19.408043467308516 1.5023053094151464" fill="#ffea16" stroke="none" /><line stroke="#e1ed5e" stroke-width="0.3" x1="184.99686870605535" x2="189.99668451229388" y1="99.2704041080226" y2="99.22748670261217" /><path d="M 185.99683186730306 99.26182062694052 a86.0,86.0 0 0,1 -10.086455211305974,41.156179273409016" fill="none" id="id88" stroke="none" /><text fill="#e1ed5e" style="font-size:6.75px; font-family:Arial;" text-anchor="middle"><textPath startOffset="21.40746469413373" xlink:href="#id88">April</textPath></text><path d="M 120.99922638620191 99.81974689727618 l 30.636595757947443 -0.2629783279013696 a51.637724413487845,51.637724413487845 0 0,0 0.0,0.8864628612503893 l -30.636595757947443 -0.2629783279013659" fill="#8fff24" stroke="none" /><path d="M 120.98066250479742 100.90099992219065 l 40.65850326875036 1.7460510731324892 a61.69597747204226,61.69597747204226 0 0,0 -0.05452282280020019,1.0577281964347143 l -40.62253885649359 -2.4437510629439343" fill="#31ff3c" stroke="none" /><path d="M 120.7213421655516 103.40968896794604 l 15.005713259263057 2.469184406468141 a36.20750808161444,36.20750808161444 0 0,0 -0.10618314254083934,0.6124361491035031 l -14.961115299229984 -2.7264135884922323" fill="#ffb310" stroke="none" /><path d="M 120.16314734710363 105.8691983318838 l 17.794694014897367 5.179776085087268 a39.533246217958315,39.533246217958315 0 0,0 -0.19526351332996314,0.649968729859536 l -17.703154181563775 -5.484482418537527" fill="#ffde14" stroke="none" /><path d="M 119.58574465831526 107.57618678355244 l 37.51124761773487 14.51015641191821 a61.219874899573604,61.219874899573604 0 0,0 -0.3875548232170198,0.9768913240552367 l -37.25663411955172 -15.151948753187012" fill="#30ff36" stroke="none" /><path d="M 118.70294669586154 109.54985784667822 l 16.088391950976806 8.214847564499951 a39.06433159782631,39.06433159782631 0 0,0 -0.31008137467831304,0.59462192170746 l -15.945002507323544 -8.489815729311914" fill="#ffd814" stroke="none" /><line stroke="#e1ed5e" stroke-width="0.3" x1="174.33088141563837" x2="178.70328620479359" y1="141.23008692659167" y2="143.65538615756765" /><path d="M 175.20536237346943 141.71514677278685 a86.0,86.0 0 0,1 -30.301960400862466,31.631185727798858" fill="none" id="id89" stroke="none" /><text fill="#e1ed5e" style="font-size:6.75px; font-family:Arial;" text-anchor="middle"><textPath startOffset="22.145653131862474" xlink:href="#id89">May</textPath></text><path d="M 116.57777611688842 112.89097897827486 l 20.509164530836 15.948050387750733 a46.98011048712337,46.98011048712337 0 0,0 -0.500525133720853,0.6323971555902108 l -20.232372966473584 -16.297767487255626" fill="#c4ff1e" stroke="none" /><path d="M 115.6541949942343 113.99807769240083 l 19.105195955974086 17.08398403231648 a46.62949517514173,46.62949517514173 0 0,0 -0.5386867970510406,0.5921111539964352 l -18.809111458081166 -17.409432761870587" fill="#c8ff1d" stroke="none" /><path d="M 114.91283532996324 114.78537596483092 l 9.457346740372481 9.376515202660656 a34.31767414803953,34.31767414803953 0 0,0 -0.4183619935354831,0.41478627148721486 l -9.294992826707034 -9.537481484376533" fill="#ff9a0e" stroke="none" /><path d="M 113.86319453409587 115.77377054828091 l 20.401229368791764 23.212854019663983 a51.903830692913814,51.903830692913814 0 0,0 -0.674306194854353,0.5824496309687152 l -19.999743694174555 -23.559647783097414" fill="#8cff24" stroke="none" /><path d="M 112.7482090630111 116.68781488649013 l 38.24462718903332 50.063444659470385 a84.0,84.0 0 0,0 -1.1533880443569346,0.8655238909439404 l -37.379586155765615 -50.71258757767834" fill="#4dd2ff" stroke="none" /><line stroke="#e1ed5e" stroke-width="0.3" x1="143.1302829299769" x2="145.66735839644613" y1="173.24464959558577" y2="177.55315839532614" /><path d="M 143.63769802327073 174.10635135553383 a86.0,86.0 0 0,1 -40.68552437913181,11.842963189579606" fill="none" id="id90" stroke="none" /><text fill="#e1ed5e" style="font-size:6.75px; font-family:Arial;" text-anchor="middle"><textPath startOffset="21.407464694133747" xlink:href="#id90">June</textPath></text><path d="M 110.02825361518725 118.45085714620011 l 6.242845915397446 11.486133337941743 a34.07304035717672,34.07304035717672 0 0,0 -0.5163058343718929,0.2749037757612619 l -6.0447512652389985 -11.591607581425572" fill="#ff960d" stroke="none" /><path d="M 108.4095320186766 119.2426549942271 l 15.415413863075745 35.27348369702424 a59.49485208042944,59.49485208042944 0 0,0 -0.9393526741806622,0.40095379924498664 l -14.807626113724652 -35.53291214592863" fill="#3bff2e" stroke="none" /><path d="M 107.74402155503746 119.51999308798841 l 3.7517292219760314 9.456808450299045 a31.173824168948286,31.173824168948286 0 0,0 -0.49911925570238164,0.1930700504084985 l -3.5888377037801207 -9.519818388845582" fill="#ff6f0a" stroke="none" /><path d="M 107.06938296918513 119.77432235084164 l 4.463181679909127 12.484313501418242 a34.25813238392083,34.25813238392083 0 0,0 -0.5554617303448838,0.19321842365830066 l -4.2482141775192215 -12.559090357645132" fill="#ff990e" stroke="none" /><path d="M 106.72888874123015 119.89276391827305 l 9.005698186284944 26.623746480051796 a49.105630689534905,49.105630689534905 0 0,0 -0.800836284030158,0.2632507931905032 l -8.547339164607052 -26.77441819464432" fill="#abff21" stroke="none" /><path d="M 105.69591212413111 120.21278271476187 l 5.814562709819784 20.633831785611125 a42.437447461470846,42.437447461470846 0 0,0 -0.7028825487598223,0.19157376424435094 l -5.459498760125267 -20.730606043999618" fill="#fbff18" stroke="none" /><path d="M 103.94208987418118 120.62667999033965 l 4.864489860171069 25.45306648617247 a46.91373873352171,46.91373873352171 0 0,0 -0.7923177927638365,0.144386695335925 l -4.4268373338561755 -25.532821355439758" fill="#c5ff1e" stroke="none" /><path d="M 103.58742460773223 120.69131181640829 l 2.218045238648579 12.793095513940084 a33.983952306962834,33.983952306962834 0 0,0 -0.5756598271789582,0.09472460549803895 l -1.9981079084165487 -12.829286117933794" fill="#ff950d" stroke="none" /><path d="M 100.72087961077811 120.9876233191556 l 0.18453760004800457 5.372610877214331 a26.375779177365196,26.375779177365196 0 0,0 -0.4526418879301202,0.011658449401766602 l -0.09228239804714047 -5.374987043966143" fill="#ff2a04" stroke="none" /><line stroke="#e1ed5e" stroke-width="0.3" x1="101.45913802915013" x2="101.54496967792366" y1="184.9874750549273" y2="189.98673829345242" /><path d="M 101.47630435890484 185.9873277026323 a86.0,86.0 0 0,1 -42.54439059252881,-10.42667462771756" fill="none" id="id91" stroke="none" /><text fill="#e1ed5e" style="font-size:6.75px; font-family:Arial;" text-anchor="middle"><textPath startOffset="22.145653131862474" xlink:href="#id91">July</textPath></text><path d="M 99.27912038922189 120.98762331915562 l -0.6323933050603922 18.411441075212725 a39.42229854709546,39.42229854709546 0 0,0 -0.6761379235507984,-0.029036271679702665 l 0.9483569892120294 -18.397872235107194" fill="#ffdd14" stroke="none" /><path d="M 98.91894614982273 120.97215588758144 l -1.3438355189342313 26.070050058779444 a47.10466249483443,47.10466249483443 0 0,0 -0.8071847066505285,-0.048558227535646994 l 1.7911645777172063 -26.043139853419103" fill="#c3ff1e" stroke="none" /><path d="M 96.76829788921471 120.74984581791261 l -3.955557281742748 25.39751527412257 a46.70370042442211,46.70370042442211 0 0,0 -0.7911217586493872,-0.13017878432861799 l 4.390956543445199 -25.325870491298282" fill="#c7ff1e" stroke="none" /><path d="M 94.6519064749342 120.30758222061772 l -1.9570264891121885 7.431148342732763 a28.684524602783615,28.684524602783615 0 0,0 -0.47509576962830796,-0.12948946466923902 l 2.0843036596751916 -7.39645838391938" fill="#ff4b07" stroke="none" /><path d="M 94.30408787586889 120.21278271476187 l -3.59780680843455 12.767347122594838 a34.26459069778064,34.26459069778064 0 0,0 -0.5647783333275763,-0.16439874166403595 l 3.8164451541437328 -12.703704686628287" fill="#ff990e" stroke="none" /><path d="M 92.25597844496254 119.51999308798841 l -7.416513548298368 18.694458966941266 a41.11187383807744,41.11187383807744 0 0,0 -0.6537679457298757,-0.26588173205311233 l 7.736335955218684 -18.56438997830886" fill="#fff216" stroke="none" /><path d="M 91.92203290615298 119.3841803445677 l -5.047991721016098 12.113342473577774 a34.123082195034456,34.123082195034456 0 0,0 -0.5387627229976094,-0.22996576963586707 l 5.255189519184139 -12.024902054282503" fill="#ff970d" stroke="none" /><path d="M 90.6110303473126 118.78422872680471 l -5.808755670383227 11.621402471928432 a33.9922529937172,33.9922529937172 0 0,0 -0.519713671852742,-0.2653695039545315 l 6.007396563949551 -11.519975016301064" fill="#ff950d" stroke="none" /><line stroke="#e1ed5e" stroke-width="0.3" x1="58.13341422392154" x2="55.67067388415222" y1="173.97424548756322" y2="178.32567169271397" /><path d="M 57.64086615596768 174.84453072859336 a86.0,86.0 0 0,1 -31.369924170532247,-30.572349798747897" fill="none" id="id92" stroke="none" /><text fill="#e1ed5e" style="font-size:6.75px; font-family:Arial;" text-anchor="middle"><textPath startOffset="22.145653131862474" xlink:href="#id92">August</textPath></text><path d="M 88.72937992617639 117.7192867562869 l -13.858760677867084 21.788273664571328 a46.82235691815616,46.82235691815616 0 0,0 -0.6744969380634591,-0.43720076621191956 l 14.230743248187553 -21.547159056655513" fill="#c6ff1e" stroke="none" /><path d="M 88.1277618465304 117.32195027204791 l -4.451543326576225 6.494934749458791 a28.87403425113916,28.87403425113916 0 0,0 -0.4064431553454079,-0.28372888839727783 l 4.562381573095398 -6.417561045256384" fill="#ff4e07" stroke="none" /><path d="M 87.83215693770417 117.11559508785305 l -6.025728026540336 8.475941091923724 a31.39956612766104,31.39956612766104 0 0,0 -0.43663188453789514,-0.31608781231466515 l 6.170340921452185 -8.371252508235994" fill="#ff720a" stroke="none" /><path d="M 86.68645165197938 116.24036423190432 l -21.092841714769722 25.729837243930163 a54.27059506837029,54.27059506837029 0 0,0 -0.7154044578681861,-0.5968158429948887 l 21.5314205067998 -25.363959217023407" fill="#72ff27" stroke="none" /><path d="M 84.58840730492382 114.26474011684316 l -11.217509221660661 10.38275906788035 a36.28509728460024,36.28509728460024 0 0,0 -0.4191832393533372,-0.4607558101446265 l 11.394090161855878 -10.18866568217805" fill="#ffb410" stroke="none" /><path d="M 84.1078160697243 113.72728997021213 l -9.50675430724009 8.211707945465728 a33.562265911843014,33.562265911843014 0 0,0 -0.3728694808691859,-0.4392393108969265 l 9.646318351616388 -8.047301852119247" fill="#ff900d" stroke="none" /><path d="M 83.64595745247003 113.17365903436017 l -6.0129879544812095 4.843637459046126 a28.72119472461425,28.72119472461425 0 0,0 -0.3059950196179379,-0.3866147112186351 l 6.095249404740708 -4.73970280391281" fill="#ff4c07" stroke="none" /><line stroke="#e1ed5e" stroke-width="0.3" x1="26.387840678322732" x2="22.057713659400548" y1="142.50000000000003" y2="145.00000000000006" /><path d="M 25.521815274538298 143.00000000000003 a86.0,86.0 0 0,1 -11.493303480769221,-40.785679425670985" fill="none" id="id93" stroke="none" /><text fill="#e1ed5e" style="font-size:6.75px; font-family:Arial;" text-anchor="middle"><textPath startOffset="21.40746469413373" xlink:href="#id93">September</textPath></text><line stroke="#e1ed5e" stroke-width="0.3" x1="15.003131293944662" x2="10.003315487706104" y1="100.72959589197737" y2="100.7725132973878" /><path d="M 14.003168132696942 100.73817937305945 a86.0,86.0 0 0,1 10.791469493833604,-42.45332614584628" fill="none" id="id94" stroke="none" /><text fill="#e1ed5e" style="font-size:6.75px; font-family:Arial;" text-anchor="middle"><textPath startOffset="22.145653131862435" xlink:href="#id94">October</textPath></text><line stroke="#e1ed5e" stroke-width="0.3" x1="26.387840678322718" x2="22.05771365940052" y1="57.49999999999999" y2="54.99999999999999" /><path d="M 25.521815274538284 56.99999999999999 a86.0,86.0 0 0,1 29.574782752854787,-30.34633250058573" fill="none" id="id95" stroke="none" /><text fill="#e1ed5e" style="font-size:6.75px; font-family:Arial;" text-anchor="middle"><textPath startOffset="21.40746469413373" xlink:href="#id95">November</textPath></text><line stroke="#e1ed5e" stroke-width="0.3" x1="56.869717070023135" x2="54.33264160355391" y1="26.7553504044142" y2="22.446841604673864" /><path d="M 56.362301976729285 25.89364864446614 a86.0,86.0 0 0,1 42.16139366436587,-11.88097634709845" fill="none" id="id96" stroke="none" /><text fill="#e1ed5e" style="font-size:6.75px; font-family:Arial;" text-anchor="middle"><textPath startOffset="22.145653131862474" xlink:href="#id96">December</textPath></text></svg>