<?xml version="1.0" encoding="utf-8" ?>
<svg baseProfile="full" height="200mm" version="1.1" viewBox="0,0,200,200" width="200mm" xmlns="http://www.w3.org/2000/svg" xmlns:ev="http://www.w3.org/2001/xml-events" xmlns:xlink="http://www.w3.org/1999/xlink"><defs /><rect fill="#1a1a1a" height="200" width="200" x="0" y="0" /><text alignment-baseline="middle" fill="#e1ed5e" style="dominant-baseline: central; font-size:9.0px; font-family:Arial;" text-anchor="middle" x="100.0" y="100.0">2024</text><line stroke="#e1ed5e" stroke-width="0.3" x1="100.0" x2="100.0" y1="15.0" y2="10.0" /><path d="M 100.0 14.0 a86.0,86.0 0 0,1 42.35913384403234,11.155469271406648" fill="none" id="id85" stroke="none" /><text fill="#e1ed5e" style="font-size:6.75px; font-family:Arial;" text-anchor="middle"><textPath startOffset="22.145653131862478" xlink:href="#id85">January</textPath></text><path d="M 100.0 79.0 l 0.0 -62.868312539382714 a83.86831253938271,83.86831253938271 0 0,0 1.4397111090219028,0.012358188328198507 l -1.079218184173048 62.85904874924895" fill="#4dd3ff" stroke="none" /><path d="M 107.40779381753099 80.34994680014964 l 3.1571197280254055 -8.374635166975178 a29.94996755061294,29.94996755061294 0 0,0 0.47952427752070975,0.18549029189975447 l -3.300416268039641 8.319204986937384" fill="#ff5808" stroke="none" /><path d="M 109.71004243097381 81.37971332152246 l 4.440095227315149 -8.514468046877163 a30.602635666780188,30.602635666780188 0 0,0 0.46371909217040924,0.24690429749900325 l -4.585603135272118 8.436993281655587" fill="#ff6108" stroke="none" /><line stroke="#e1ed5e" stroke-width="0.3" x1="143.13028292997686" x2="145.6673583964461" y1="26.7553504044142" y2="22.446841604673864" /><path d="M 143.63769802327073 25.89364864446614 a86.0,86.0 0 0,1 29.32050498858742,28.57503671076993" fill="none" id="id86" stroke="none" /><text fill="#e1ed5e" style="font-size:6.75px; font-family:Arial;" text-anchor="middle"><textPath startOffset="20.669276256404974" xlink:href="#id86">February</textPath></text><path d="M 110.65571695917076 81.90426304109057 l 15.232723883977927 -25.868495346521772 a51.02024197801427,51.02024197801427 0 0,0 0.7508897879960738,0.4508877428756635 l -15.674546428531436 25.60319360311019" fill="#98ff23" stroke="none" /><path d="M 112.45986205192187 83.09580414077388 l 6.627327184330858 -8.99124214058392 a32.16977622151773,32.16977622151773 0 0,0 0.44171708670876847,0.3314727367386176 l -6.780697259950393 8.876150376581286" fill="#ff770b" stroke="none" /><path d="M 113.03279911837588 83.53348406188908 l 5.550547373149101 -7.012935283896958 a29.943703787452897,29.943703787452897 0 0,0 0.4003177033827475,0.3224676048417741 l -5.670115846887108 6.916619385261775" fill="#ff5808" stroke="none" /><path d="M 113.59037401385872 83.9905735841838 l 34.99751207536939 -41.22698122479276 a75.07855242492204,75.07855242492204 0 0,0 0.9753795110104095,0.8425095907137145 l -35.70007106614266 40.62012750161433" fill="#42ffd3" stroke="none" /><path d="M 114.13192950727249 84.46653392183569 l 16.816267488812972 -18.484023746678655 a45.98891726592188,45.98891726592188 0 0,0 0.5793951599080047,0.5362795101433661 l -17.131092420034943 18.192626490402915" fill="#d3ff1c" stroke="none" /><path d="M 115.16444852881244 85.47280134310134 l 18.13498058980042 -17.372901175171407 a46.11364601635354,46.11364601635354 0 0,0 0.542700885623473,0.5763295338137387 l -18.430537309160155 17.059030181413174" fill="#d2ff1c" stroke="none" /><path d="M 116.1254893667686 86.54754324733833 l 27.821168634457617 -23.209408369015442 a57.231120063098416,57.231120063098416 0 0,0 0.6228740251884353,0.7598050328300624 l -28.21548947888468 22.728401054486884" fill="#55ff2b" stroke="none" /><line stroke="#e1ed5e" stroke-width="0.3" x1="172.87174338648825" x2="177.1583165268699" y1="56.24261187166439" y2="53.66864786411523" /><path d="M 173.72905801456457 55.72781907015455 a86.0,86.0 0 0,1 12.242430191666344,42.057860355516425" fill="none" id="id87" stroke="none" /><text fill="#e1ed5e" style="font-size:6.75px; font-family:Arial;" text-anchor="middle"><textPath startOffset="22.145653131862474" xlink:href="#id87">March</textPath></text><path d="M 118.18653347947321 89.5 l 26.59687671581375 -15.355713931478363 a51.71142786295672,51.71142786295672 0 0,0 0.4372487731221468,0.7725766857385953 l -26.856558853957274 14.89688047564065" fill="#91ff24" stroke="none" /><path d="M 118.8641267826498 90.77261029715802 l 33.68967668090278 -16.47930907585697 a58.504159002454465,58.504159002454465 0 0,0 0.4335457445901552,0.9059438611806436 l -33.96760168345284 15.898552712611224" fill="#47ff2c" stroke="none" /><path d="M 119.58574465831526 92.42381321644754 l 36.10325014130206 -13.96551274080324 a59.71020817405875,59.71020817405875 0 0,0 0.36158601632344994,0.9591498673009571 l -36.33766684143995 13.343694593308124" fill="#3bff2e" stroke="none" /><path d="M 120.16314734710363 94.1308016681162 l 2.861126438441802 -0.8328322077269075 a23.979874826729798,23.979874826729798 0 0,0 0.1116565866866862,0.396229835746326 l -2.8750015172030703 0.7835944480775683" fill="#ff0000" stroke="none" /><path d="M 120.592083275326 95.88100663000786 l 35.90482426780008 -7.181970426810056 a57.61607713714264,57.61607713714264 0 0,0 0.18567112209655678,0.9715097679573762 l -36.022821682178794 6.5645580938193655" fill="#51ff2b" stroke="none" /><path d="M 120.77682067341334 96.94652285012252 l 62.330462020240034 -9.160431449632455 a84.0,84.0 0 0,0 0.19742193377914985,1.4284467671996575 l -62.478528470574396 8.089096374232712" fill="#4dd2ff" stroke="none" /><path d="M 120.9064616781168 98.02013634271609 l 22.844641507952016 -2.1634113022872814 a43.94685150711767,43.94685150711767 0 0,0 0.0646779987583494,0.7516563854982778 l -22.87841312940811 1.7709338694133416" fill="#ecff1a" stroke="none" /><line stroke="#e1ed5e" stroke-width="0.3" x1="184.99686870605535" x2="189.99668451229388" y1="99.2704041080226" y2="99.22748670261217" /><path d="M 185.99683186730306 99.26182062694052 a86.0,86.0 0 0,1 -10.086455211305974,41.156179273409016" fill="none" id="id88" stroke="none" /><text fill="#e1ed5e" style="font-size:6.75px; font-family:Arial;" text-anchor="middle"><textPath startOffset="21.40746469413373" xlink:href="#id88">April</textPath></text><path d="M 120.99922638620191 99.81974689727618 l 36.11475292754978 -0.3100017186143932 a57.116083398999805,57.116083398999805 0 0,0 0.0,0.9805096426764357 l -36.11475292754978 -0.3100017186143888" fill="#56ff2b" stroke="none" /><path d="M 120.98066250479742 100.90099992219065 l 47.928686710369355 2.0582640317896623 a68.97286170956758,68.97286170956758 0 0,0 -0.06095365161719972,1.18248455747478 l -47.886291469295585 -2.880720382641173" fill="#3aff90" stroke="none" /><path d="M 120.7213421655516 103.40968896794604 l 17.688898307814167 2.9107014851355655 a38.926776243367385,38.926776243367385 0 0,0 -0.11415774378032084,0.6584315298850207 l -17.636325746541612 -3.213926047941174" fill="#ffd213" stroke="none" /><path d="M 120.16314734710363 105.8691983318838 l 20.97657921417908 6.105976493306403 a42.847192599177134,42.847192599177134 0 0,0 -0.2116318330428522,0.7044535426762721 l -20.868671061132595 -6.465167639573399" fill="#faff18" stroke="none" /><path d="M 119.58574465831526 107.57618678355244 l 44.218667453194726 17.104730496063333 a68.41162680903474,68.41162680903474 0 0,0 -0.4330824912245754,1.091650788308229 l -43.91852628700403 -17.861282301585128" fill="#39ff8a" stroke="none" /><path d="M 118.70294669586154 109.54985784667822 l 18.96517174759481 9.683751826520696 a42.294430935186114,42.294430935186114 0 0,0 -0.33572096972341986,0.6437892259137797 l -18.79614270889644 -10.007887295538978" fill="#fffd17" stroke="none" /><line stroke="#e1ed5e" stroke-width="0.3" x1="174.33088141563837" x2="178.70328620479359" y1="141.23008692659167" y2="143.65538615756765" /><path d="M 175.20536237346943 141.71514677278685 a86.0,86.0 0 0,1 -30.301960400862466,31.631185727798858" fill="none" id="id89" stroke="none" /><text fill="#e1ed5e" style="font-size:6.75px; font-family:Arial;" text-anchor="middle"><textPath startOffset="22.145653131862474" xlink:href="#id89">May</textPath></text><path d="M 116.57777611688842 112.89097897827486 l 24.176426638049982 18.799735583556878 a51.62563734841558,51.62563734841558 0 0,0 -0.550018481636444,0.6949303838614456 l -23.850141725771977 -19.211985911333006" fill="#92ff23" stroke="none" /><line stroke="#e1ed5e" stroke-width="0.3" x1="143.1302829299769" x2="145.66735839644613" y1="173.24464959558577" y2="177.55315839532614" /><path d="M 143.63769802327073 174.10635135553383 a86.0,86.0 0 0,1 -40.68552437913181,11.842963189579606" fill="none" id="id90" stroke="none" /><text fill="#e1ed5e" style="font-size:6.75px; font-family:Arial;" text-anchor="middle"><textPath startOffset="21.407464694133747" xlink:href="#id90">June</textPath></text><line stroke="#e1ed5e" stroke-width="0.3" x1="101.45913802915013" x2="101.54496967792366" y1="184.9874750549273" y2="189.98673829345242" /><path d="M 101.47630435890484 185.9873277026323 a86.0,86.0 0 0,1 -42.54439059252881,-10.42667462771756" fill="none" id="id91" stroke="none" /><text fill="#e1ed5e" style="font-size:6.75px; font-family:Arial;" text-anchor="middle"><textPath startOffset="22.145653131862474" xlink:href="#id91">July</textPath></text><line stroke="#e1ed5e" stroke-width="0.3" x1="58.13341422392154" x2="55.67067388415222" y1="173.97424548756322" y2="178.32567169271397" /><path d="M 57.64086615596768 174.84453072859336 a86.0,86.0 0 0,1 -31.369924170532247,-30.572349798747897" fill="none" id="id92" stroke="none" /><text fill="#e1ed5e" style="font-size:6.75px; font-family:Arial;" text-anchor="middle"><textPath startOffset="22.145653131862474" xlink:href="#id92">August</textPath></text><line stroke="#e1ed5e" stroke-width="0.3" x1="26.387840678322732" x2="22.057713659400548" y1="142.50000000000003" y2="145.00000000000006" /><path d="M 25.521815274538298 143.00000000000003 a86.0,86.0 0 0,1 -11.493303480769221,-40.785679425670985" fill="none" id="id93" stroke="none" /><text fill="#e1ed5e" style="font-size:6.75px; font-family:Arial;" text-anchor="middle"><textPath startOffset="21.40746469413373" xlink:href="#id93">September</textPath></text><line stroke="#e1ed5e" stroke-width="0.3" x1="15.003131293944662" x2="10.003315487706104" y1="100.72959589197737" y2="100.7725132973878" /><path d="M 14.003168132696942 100.73817937305945 a86.0,86.0 0 0,1 10.791469493833604,-42.45332614584628" fill="none" id="id94" stroke="none" /><text fill="#e1ed5e" style="font-size:6.75px; font-family:Arial;" text-anchor="middle"><textPath startOffset="22.145653131862435" xlink:href="#id94">October</textPath></text><line stroke="#e1ed5e" stroke-width="0.3" x1="26.387840678322718" x2="22.05771365940052" y1="57.49999999999999" y2="54.99999999999999" /><path d="M 25.521815274538284 56.99999999999999 a86.0,86.0 0 0,1 29.574782752854787,-30.34633250058573" fill="none" id="id95" stroke="none" /><text fill="#e1ed5e" style="font-size:6.75px; font-family:Arial;" text-anchor="middle"><textPath startOffset="21.40746469413373" xlink:href="#id95">November</textPath></text><line stroke="#e1ed5e" stroke-width="0.3" x1="56.869717070023135" x2="54.33264160355391" y1="26.7553504044142" y2="22.446841604673864" /><path d="M 56.362301976729285 25.89364864446614 a86.0,86.0 0 0,1 42.16139366436587,-11.88097634709845" fill="none" id="id96" stroke="none" /><text fill="#e1ed5e" style="font-size:6.75px; font-family:Arial;" text-anchor="middle"><textPath startOffset="22.145653131862474" xlink:href="#id96">December</textPath></text></svg>